<svg xmlns="http://www.w3.org/2000/svg" viewBox="0 0 22 37.5" x="0px" y="0px"><path fill="#78E6C8" fill-rule="evenodd" d="M4 26h2v-2H4v2zm0-4h2v-2H4v2zm0-4h2v-2H4v2zm18-2v10c0 2.206-1.794 4-4 4H4c-2.206 0-4-1.794-4-4V16c0-2.206 1.794-4 4-4v2c-1.103 0-2 .897-2 2v10c0 1.103.897 2 2 2h14c1.103 0 2-.897 2-2V16c0-1.103-.897-2-2-2v-2c2.206 0 4 1.794 4 4zM2 6h2V4H2v2zm4-3c0-.552.449-1 1-1h8c.551 0 1 .448 1 1v4c0 .552-.449 1-1 1h-1.721l-1 3H9.721l-1-3H7c-.551 0-1-.448-1-1V3zm5 21c-.551 0-1-.448-1-1V13h2v10c0 .552-.449 1-1 1zM2 8h2.185A2.995 2.995 0 0 0 7 10h.279L8 12.162V23c0 1.654 1.346 3 3 3s3-1.346 3-3V12.162L14.721 10H15c1.654 0 3-1.346 3-3V3c0-1.654-1.346-3-3-3H7a2.997 2.997 0 0 0-2.816 2H2C.897 2 0 2.897 0 4v2c0 1.103.897 2 2 2z"/><text x="0" y="45" fill="#000000" font-size="5px" font-weight="bold" font-family="'Helvetica Neue', Helvetica, Arial-Unicode, Arial, Sans-serif">Created by Denis Shumaylov</text><text x="0" y="50" fill="#000000" font-size="5px" font-weight="bold" font-family="'Helvetica Neue', Helvetica, Arial-Unicode, Arial, Sans-serif">from the Noun Project</text></svg>