<svg xmlns="http://www.w3.org/2000/svg" viewBox="0 0 27 37.5" x="0px" y="0px"><path fill="#78E6C8" fill-rule="evenodd" d="M10 6c0-2.206-1.794-4-4-4S2 3.794 2 6s1.794 4 4 4 4-1.794 4-4zm-3 5.91c-.326.055-.659.09-1 .09-.341 0-.674-.035-1-.09V20a1.001 1.001 0 0 0 2 0v-8.09zm2-.722V20c0 1.654-1.346 3-3 3s-3-1.346-3-3v-8.812A5.998 5.998 0 0 1 0 6c0-3.309 2.691-6 6-6s6 2.691 6 6a5.998 5.998 0 0 1-3 5.188zM7 27a1.001 1.001 0 0 1-2 0v-2H3v2c0 1.654 1.346 3 3 3s3-1.346 3-3v-2H7v2zm20-14v14c0 1.654-1.346 3-3 3s-3-1.346-3-3v-4h-3v4c0 1.654-1.346 3-3 3s-3-1.346-3-3v-4h-1v-2h3v6a1.001 1.001 0 0 0 2 0v-6h7v6a1 1 0 0 0 2 0V13a1 1 0 0 0-2 0v6h-7v-6a1 1 0 0 0-2 0v6h-3v-2h1v-4c0-1.654 1.346-3 3-3s3 1.346 3 3v4h3v-4c0-1.654 1.346-3 3-3s3 1.346 3 3z"/><text x="0" y="45" fill="#000000" font-size="5px" font-weight="bold" font-family="'Helvetica Neue', Helvetica, Arial-Unicode, Arial, Sans-serif">Created by Denis Shumaylov</text><text x="0" y="50" fill="#000000" font-size="5px" font-weight="bold" font-family="'Helvetica Neue', Helvetica, Arial-Unicode, Arial, Sans-serif">from the Noun Project</text></svg>